<?xml version="1.0" standalone="no"?>
<!DOCTYPE svg PUBLIC "-//W3C//DTD SVG 20010904//EN"
 "http://www.w3.org/TR/2001/REC-SVG-20010904/DTD/svg10.dtd">
<svg version="1.0" xmlns="http://www.w3.org/2000/svg"
 width="300.000000pt" height="51.000000pt" viewBox="0 0 300.000000 51.000000"
 preserveAspectRatio="xMidYMid meet">

<g transform="translate(0.000000,51.000000) scale(0.100000,-0.100000)"
fill="#000000" stroke="none">
<path fill="#fff" d="M347 412 c-73 -74 -87 -92 -87 -120 0 -30 2 -32 33 -32 29 0 46 12
122 90 l88 91 -28 29 c-16 17 -31 30 -35 30 -3 0 -45 -39 -93 -88z"/>
<path fill="#fff" d="M2 238 l3 -233 230 0 230 0 0 130 c0 123 -1 130 -20 130 -19 0 -20
-8 -23 -107 l-3 -108 -184 0 -185 0 0 185 0 184 108 3 c99 3 107 4 107 23 0
19 -8 20 -133 23 l-132 3 2 -233z"/>
<path fill="#fff" d="M1350 215 l0 -165 25 0 c25 0 25 1 25 78 0 87 14 112 61 112 41 0 49
-18 49 -107 0 -82 0 -83 25 -83 25 0 25 0 25 94 0 116 -14 141 -79 140 -25 -1
-50 -9 -61 -19 -20 -18 -20 -17 -20 48 0 65 -1 67 -25 67 l-25 0 0 -165z"/>
<path fill="#fff" d="M540 364 c0 -3 25 -50 55 -104 48 -86 55 -105 55 -154 0 -53 1 -56
25 -56 24 0 25 3 25 56 0 49 7 68 55 155 30 55 55 101 55 104 0 3 -13 5 -28 5
-24 0 -32 -9 -66 -77 l-37 -76 -18 27 c-10 15 -28 49 -41 76 -20 43 -28 50
-52 50 -15 0 -28 -3 -28 -6z"/>
<path fill="#fff" d="M1720 210 l0 -160 25 0 24 0 3 122 3 123 73 -123 c71 -118 75 -122
108 -122 l34 0 0 160 0 160 -25 0 -25 0 0 -121 c0 -72 -4 -118 -9 -114 -5 3
-40 57 -76 120 -65 111 -68 115 -101 115 l-34 0 0 -160z"/>
<path fill="#fff" d="M2340 315 c0 -31 -3 -35 -25 -35 -18 0 -25 -5 -25 -20 0 -15 7 -20
25 -20 25 0 25 -1 25 -79 0 -75 2 -81 27 -101 21 -17 36 -20 63 -16 44 7 76
42 58 63 -8 10 -14 11 -16 4 -7 -21 -41 -32 -62 -21 -17 9 -20 21 -20 80 l0
69 48 3 c34 2 47 7 47 18 0 11 -13 16 -47 18 -47 3 -48 4 -48 38 0 30 -3 34
-25 34 -22 0 -25 -4 -25 -35z"/>
<path fill="#fff" d="M883 275 c-26 -11 -53 -41 -53 -58 0 -3 9 -7 20 -10 14 -3 29 3 45
19 29 29 55 30 85 6 32 -26 20 -38 -44 -46 -67 -9 -106 -36 -106 -75 0 -58 70
-85 133 -53 20 11 37 16 37 11 0 -19 42 -31 67 -20 27 12 26 38 -1 33 -13 -2
-16 7 -16 63 0 80 -18 119 -61 134 -41 14 -67 13 -106 -4z m112 -137 c-15 -53
-84 -75 -109 -36 -14 22 1 37 46 48 60 14 70 12 63 -12z"/>
<path fill="#fff" d="M1153 270 c-27 -16 -33 -26 -33 -55 0 -39 17 -50 108 -74 45 -13 55
-33 23 -51 -32 -16 -60 -12 -86 14 -15 16 -31 22 -44 19 -46 -12 29 -83 88
-83 68 0 125 56 101 100 -12 22 -66 50 -98 50 -10 0 -27 6 -37 14 -16 12 -17
16 -6 30 17 20 55 21 75 1 16 -17 56 -20 56 -5 0 17 -41 48 -72 54 -41 8 -39
9 -75 -14z"/>
<path fill="#fff" d="M2093 274 c-34 -17 -63 -66 -63 -109 0 -126 165 -170 230 -62 38 62
12 145 -55 173 -44 18 -72 18 -112 -2z m116 -60 c48 -61 3 -136 -74 -125 -51
6 -74 92 -35 131 30 30 83 27 109 -6z"/>
<path fill="#fff" d="M2583 275 c-87 -38 -87 -177 1 -219 43 -20 79 -20 122 0 42 20 49 31
33 50 -10 13 -14 12 -31 -3 -26 -24 -90 -23 -117 1 -41 37 -28 46 69 46 84 0
90 1 90 20 0 44 -29 90 -64 105 -43 18 -62 18 -103 0z m85 -41 c12 -8 22 -24
22 -35 0 -17 -7 -19 -60 -19 -59 0 -71 8 -52 36 9 13 43 33 57 34 6 0 21 -7
33 -16z"/>
<path fill="#fff" d="M2823 270 c-27 -16 -33 -26 -33 -55 0 -39 17 -50 108 -74 45 -13 55
-33 23 -51 -32 -16 -60 -12 -86 14 -15 16 -31 22 -44 19 -46 -12 29 -83 88
-83 68 0 125 56 101 100 -12 22 -66 50 -98 50 -10 0 -27 6 -37 14 -16 12 -17
16 -6 30 17 20 55 21 75 1 16 -17 56 -20 56 -5 0 17 -41 48 -72 54 -41 8 -39
9 -75 -14z"/>
</g>
</svg>
